<svg xmlns="http://www.w3.org/2000/svg" xmlns:xlink="http://www.w3.org/1999/xlink" width="400" zoomAndPan="magnify" viewBox="0 0 300 322.499991" height="430" preserveAspectRatio="xMidYMid meet" version="1.0"><defs><clipPath id="2be95c444f"><path d="M 2.488281 13.488281 L 222 13.488281 L 222 233 L 2.488281 233 Z M 2.488281 13.488281 " clip-rule="nonzero"/></clipPath></defs><path fill="#023d28" d="M 286.851562 259.074219 L 219.753906 192 C 209.761719 207.546875 196.546875 220.761719 180.972656 230.78125 L 248.074219 297.828125 C 258.765625 308.546875 276.132812 308.546875 286.828125 297.828125 C 297.546875 287.183594 297.546875 269.792969 286.851562 259.074219 " fill-opacity="1" fill-rule="nonzero"/><g clip-path="url(#2be95c444f)"><path fill="#023d28" d="M 112.109375 205.394531 C 66.785156 205.394531 29.902344 168.480469 29.902344 123.160156 C 29.902344 77.785156 66.785156 40.902344 112.109375 40.902344 C 157.480469 40.902344 194.339844 77.785156 194.339844 123.160156 C 194.367188 168.480469 157.480469 205.394531 112.109375 205.394531 M 221.777344 123.160156 C 221.777344 62.601562 172.667969 13.488281 112.109375 13.488281 C 51.601562 13.488281 2.488281 62.601562 2.488281 123.160156 C 2.488281 183.667969 51.601562 232.777344 112.109375 232.777344 C 172.667969 232.777344 221.777344 183.667969 221.777344 123.160156 " fill-opacity="1" fill-rule="nonzero"/></g><path fill="#023d28" d="M 149.488281 101.148438 L 127.1875 123.03125 L 149.304688 145.5625 L 133.886719 160.667969 L 111.796875 138.136719 L 89.5 160.019531 L 74.78125 145.042969 L 97.078125 123.160156 L 75.015625 100.679688 L 90.40625 85.574219 L 112.472656 108.054688 L 134.769531 86.171875 L 149.488281 101.148438 " fill-opacity="1" fill-rule="nonzero"/></svg>