<svg xmlns="http://www.w3.org/2000/svg" xmlns:xlink="http://www.w3.org/1999/xlink" width="185" zoomAndPan="magnify" viewBox="0 0 138.75 101.249998" height="135" preserveAspectRatio="xMidYMid meet" version="1.0"><defs><g/><clipPath id="733149d9d6"><path d="M 73.566406 23 L 81 23 L 81 25 L 73.566406 25 Z M 73.566406 23 " clip-rule="nonzero"/></clipPath><clipPath id="4d7a93826b"><path d="M 80 1.210938 L 110 1.210938 L 110 32 L 80 32 Z M 80 1.210938 " clip-rule="nonzero"/></clipPath><clipPath id="5007c57b57"><path d="M 110 19 L 134.726562 19 L 134.726562 99.660156 L 110 99.660156 Z M 110 19 " clip-rule="nonzero"/></clipPath></defs><g clip-path="url(#733149d9d6)"><path fill="#ffffff" d="M 80.511719 23.859375 L 73.566406 24.496094 L 80.511719 24.445312 Z M 80.511719 23.859375 " fill-opacity="1" fill-rule="nonzero"/></g><path fill="#ffffff" d="M 84.066406 23.566406 L 84.066406 24.453125 L 106.683594 24.316406 L 106.667969 21.5 Z M 84.066406 23.566406 " fill-opacity="1" fill-rule="nonzero"/><g clip-path="url(#4d7a93826b)"><path fill="#ffffff" d="M 109.300781 28.621094 C 109.292969 25.25 109.253906 13.917969 109.300781 12.675781 C 109.335938 11.859375 108.851562 8.191406 105.941406 5.171875 C 103.433594 2.570312 99.910156 1.25 95.476562 1.25 C 82.183594 1.25 81.546875 13.414062 81.546875 13.5625 L 81.546875 28.613281 C 81.148438 28.871094 80.878906 29.328125 80.878906 29.839844 C 80.878906 30.652344 81.539062 31.3125 82.355469 31.3125 C 83.167969 31.3125 83.828125 30.652344 83.828125 29.839844 C 83.828125 29.246094 83.480469 28.742188 82.964844 28.503906 L 82.964844 13.585938 C 82.980469 13.136719 83.535156 2.660156 95.484375 2.660156 C 99.519531 2.660156 102.699219 3.832031 104.933594 6.148438 C 107.289062 8.589844 107.925781 11.746094 107.890625 12.617188 C 107.84375 13.886719 107.875 24.984375 107.882812 28.503906 C 107.378906 28.742188 107.019531 29.246094 107.019531 29.839844 C 107.019531 30.652344 107.679688 31.3125 108.496094 31.3125 C 109.308594 31.3125 109.96875 30.652344 109.96875 29.839844 C 109.96875 29.328125 109.699219 28.878906 109.300781 28.621094 Z M 109.300781 28.621094 " fill-opacity="1" fill-rule="nonzero"/></g><g clip-path="url(#5007c57b57)"><path fill="#ffffff" d="M 128.480469 21.535156 L 127.527344 19.628906 L 127.136719 19.664062 L 119.089844 20.394531 L 110.46875 21.183594 L 110.492188 24.292969 L 121.59375 24.226562 C 140.855469 56.539062 119.464844 98.707031 119 99.617188 C 141.546875 67.863281 135.125 32.394531 128.480469 21.535156 Z M 128.480469 21.535156 " fill-opacity="1" fill-rule="nonzero"/></g><g fill="#ffffff" fill-opacity="1"><g transform="translate(6.380296, 61.417784)"><g><path d="M 7.847656 -9.546875 C 10.472656 -8.921875 12.261719 -8.234375 13.214844 -7.457031 C 13.871094 -6.921875 14.199219 -6.234375 14.199219 -5.398438 C 14.199219 -4.566406 14.023438 -3.878906 13.664062 -3.402344 C 12.769531 -2.148438 11.15625 -1.523438 8.890625 -1.523438 C 5.726562 -1.523438 3.9375 -2.59375 3.550781 -4.742188 L 1.105469 -4.742188 C 1.820312 -1.3125 4.414062 0.386719 8.890625 0.386719 C 10.890625 0.386719 12.558594 -0.03125 13.902344 -0.925781 C 15.511719 -1.96875 16.347656 -3.519531 16.347656 -5.550781 C 16.347656 -7.21875 15.691406 -8.503906 14.378906 -9.398438 C 13.453125 -10.054688 11.964844 -10.652344 9.90625 -11.1875 C 7.816406 -11.722656 6.472656 -12.171875 5.847656 -12.5 C 4.476562 -13.1875 3.789062 -14.140625 3.820312 -15.394531 C 3.820312 -16.050781 3.9375 -16.617188 4.234375 -17.035156 C 5.011719 -18.199219 6.382812 -18.792969 8.351562 -18.792969 C 11.128906 -18.792969 12.707031 -17.898438 13.125 -16.167969 L 15.394531 -16.167969 C 14.648438 -19.09375 12.292969 -20.585938 8.351562 -20.585938 C 6.5625 -20.585938 4.980469 -20.109375 3.667969 -19.152344 C 2.328125 -18.199219 1.640625 -16.796875 1.640625 -14.886719 C 1.640625 -12.292969 3.730469 -10.5 7.847656 -9.546875 Z M 7.847656 -9.546875 "/></g></g></g><g fill="#ffffff" fill-opacity="1"><g transform="translate(23.504458, 61.417784)"><g><path d="M 4.324219 0 L 4.324219 -5.488281 C 4.324219 -7.308594 4.625 -8.679688 5.25 -9.636719 C 5.609375 -10.171875 6.054688 -10.5625 6.621094 -10.859375 C 7.160156 -11.15625 7.90625 -11.308594 8.800781 -11.308594 C 9.695312 -11.308594 10.320312 -10.980469 10.710938 -10.382812 C 11.097656 -9.785156 11.308594 -9.039062 11.308594 -8.203125 L 11.308594 0 L 13.394531 0 L 13.394531 -8.203125 C 13.394531 -9.726562 12.976562 -10.949219 12.203125 -11.875 C 11.785156 -12.351562 11.308594 -12.707031 10.738281 -12.976562 C 10.144531 -13.246094 9.398438 -13.394531 8.472656 -13.394531 C 7.519531 -13.394531 6.710938 -13.125 5.996094 -12.648438 C 5.308594 -12.203125 4.742188 -11.605469 4.324219 -10.859375 L 4.324219 -22.375 L 2.238281 -22.375 L 2.238281 0 Z M 4.324219 0 "/></g></g></g><g fill="#ffffff" fill-opacity="1"><g transform="translate(38.689477, 61.417784)"><g><path d="M 12.976562 -6.621094 C 12.976562 -5.308594 12.5 -4.207031 11.574219 -3.28125 C 10.621094 -2.328125 9.515625 -1.878906 8.203125 -1.878906 C 6.890625 -1.878906 5.757812 -2.328125 4.832031 -3.28125 C 3.878906 -4.207031 3.429688 -5.308594 3.429688 -6.621094 C 3.429688 -7.9375 3.878906 -9.039062 4.832031 -9.992188 C 5.757812 -10.917969 6.890625 -11.394531 8.203125 -11.394531 C 9.515625 -11.394531 10.621094 -10.917969 11.574219 -9.992188 C 12.5 -9.039062 12.976562 -7.9375 12.976562 -6.621094 Z M 15.066406 -6.621094 C 15.066406 -8.503906 14.378906 -10.113281 13.035156 -11.457031 C 11.695312 -12.796875 10.082031 -13.484375 8.203125 -13.484375 C 6.292969 -13.484375 4.683594 -12.796875 3.339844 -11.457031 C 2 -10.113281 1.34375 -8.503906 1.34375 -6.621094 C 1.34375 -4.714844 2 -3.101562 3.339844 -1.789062 C 4.683594 -0.449219 6.324219 0.207031 8.203125 0.207031 C 10.054688 0.207031 11.695312 -0.449219 13.035156 -1.789062 C 14.378906 -3.101562 15.066406 -4.714844 15.066406 -6.621094 Z M 15.066406 -6.621094 "/></g></g></g><g fill="#ffffff" fill-opacity="1"><g transform="translate(55.097652, 61.417784)"><g><path d="M 4.324219 7.457031 L 4.324219 -2.238281 C 4.414062 -2.058594 4.566406 -1.910156 4.683594 -1.789062 C 5.9375 -0.386719 7.457031 0.296875 9.277344 0.296875 C 11.066406 0.296875 12.589844 -0.386719 13.84375 -1.789062 C 15.035156 -3.132812 15.664062 -4.714844 15.664062 -6.5625 C 15.664062 -8.382812 15.035156 -9.964844 13.84375 -11.335938 C 12.589844 -12.707031 11.066406 -13.425781 9.277344 -13.425781 C 7.457031 -13.425781 5.9375 -12.707031 4.683594 -11.335938 C 4.566406 -11.1875 4.414062 -11.039062 4.324219 -10.859375 L 4.324219 -13.125 L 2.238281 -13.125 L 2.238281 7.457031 Z M 13.574219 -6.5625 C 13.574219 -5.28125 13.125 -4.148438 12.230469 -3.222656 C 11.335938 -2.265625 10.234375 -1.789062 8.949219 -1.789062 C 7.636719 -1.789062 6.535156 -2.265625 5.636719 -3.222656 C 4.742188 -4.148438 4.324219 -5.28125 4.324219 -6.5625 C 4.324219 -7.816406 4.742188 -8.949219 5.636719 -9.90625 C 6.535156 -10.859375 7.636719 -11.335938 8.949219 -11.335938 C 10.234375 -11.335938 11.335938 -10.859375 12.230469 -9.90625 C 13.125 -8.949219 13.574219 -7.816406 13.574219 -6.5625 Z M 13.574219 -6.5625 "/></g></g></g><g fill="#ffffff" fill-opacity="1"><g transform="translate(72.102479, 61.417784)"><g><path d="M 15.484375 -5.636719 C 15.484375 -7.070312 15.125 -8.292969 14.4375 -9.25 C 13.722656 -10.203125 12.769531 -10.859375 11.605469 -11.1875 C 12.292969 -11.484375 12.886719 -12.023438 13.335938 -12.828125 C 13.542969 -13.1875 13.695312 -13.542969 13.8125 -13.933594 C 13.933594 -14.320312 13.992188 -14.855469 13.992188 -15.542969 C 13.992188 -16.199219 13.8125 -16.886719 13.515625 -17.542969 C 12.621094 -19.363281 10.679688 -20.285156 7.726562 -20.285156 L 2.238281 -20.285156 L 2.238281 0 L 8.441406 0 C 10.5 0 12.140625 -0.449219 13.394531 -1.402344 C 14.023438 -1.878906 14.527344 -2.507812 14.917969 -3.28125 C 15.273438 -4.027344 15.484375 -4.804688 15.484375 -5.636719 Z M 11.902344 -15.214844 C 11.902344 -14.109375 11.574219 -13.304688 10.917969 -12.769531 C 10.261719 -12.230469 9.398438 -11.964844 8.324219 -11.964844 L 4.324219 -11.964844 L 4.324219 -18.289062 L 7.726562 -18.289062 C 10.5 -18.289062 11.902344 -17.242188 11.902344 -15.214844 Z M 13.394531 -6.054688 C 13.394531 -4.832031 12.976562 -3.847656 12.140625 -3.101562 C 11.335938 -2.355469 10.292969 -2 9.039062 -2 L 4.324219 -2 L 4.324219 -9.875 L 9.367188 -9.875 C 10.410156 -9.875 11.335938 -9.515625 12.140625 -8.800781 C 12.5 -8.472656 12.796875 -8.085938 13.035156 -7.636719 C 13.277344 -7.160156 13.394531 -6.652344 13.394531 -6.054688 Z M 13.394531 -6.054688 "/></g></g></g><g fill="#ffffff" fill-opacity="1"><g transform="translate(88.182488, 61.417784)"><g><path d="M 12.679688 -6.5625 C 12.679688 -5.28125 12.230469 -4.148438 11.335938 -3.222656 C 10.441406 -2.265625 9.335938 -1.789062 8.054688 -1.789062 C 6.742188 -1.789062 5.636719 -2.265625 4.742188 -3.222656 C 3.847656 -4.148438 3.429688 -5.28125 3.429688 -6.5625 C 3.429688 -7.816406 3.847656 -8.949219 4.742188 -9.90625 C 5.636719 -10.859375 6.742188 -11.335938 8.054688 -11.335938 C 9.335938 -11.335938 10.441406 -10.859375 11.335938 -9.90625 C 12.230469 -8.949219 12.679688 -7.816406 12.679688 -6.5625 Z M 14.765625 0 L 14.765625 -13.125 L 12.679688 -13.125 L 12.679688 -10.859375 C 12.558594 -11.039062 12.410156 -11.1875 12.292969 -11.335938 C 11.039062 -12.707031 9.515625 -13.425781 7.726562 -13.425781 C 5.90625 -13.425781 4.386719 -12.707031 3.132812 -11.335938 C 1.9375 -9.964844 1.34375 -8.382812 1.34375 -6.5625 C 1.34375 -4.714844 1.9375 -3.132812 3.132812 -1.789062 C 4.386719 -0.386719 5.90625 0.296875 7.726562 0.296875 C 9.515625 0.296875 11.039062 -0.386719 12.292969 -1.789062 C 12.410156 -1.910156 12.558594 -2.058594 12.679688 -2.238281 L 12.679688 0 Z M 14.765625 0 "/></g></g></g><g fill="#ffffff" fill-opacity="1"><g transform="translate(105.187315, 61.417784)"><g><path d="M 12.859375 -6.5625 C 12.859375 -5.28125 12.410156 -4.148438 11.515625 -3.222656 C 10.621094 -2.265625 9.515625 -1.789062 8.234375 -1.789062 C 6.949219 -1.789062 5.847656 -2.265625 4.953125 -3.222656 C 4.058594 -4.148438 3.609375 -5.25 3.609375 -6.5625 C 3.609375 -7.847656 4.058594 -8.949219 4.953125 -9.90625 C 5.847656 -10.859375 6.949219 -11.335938 8.234375 -11.335938 C 9.515625 -11.335938 10.621094 -10.859375 11.515625 -9.90625 C 12.410156 -8.949219 12.859375 -7.816406 12.859375 -6.5625 Z M 3.550781 1.789062 L 1.402344 1.789062 C 1.640625 3.191406 2.265625 4.414062 3.339844 5.460938 C 4.652344 6.800781 6.265625 7.457031 8.144531 7.457031 C 9.992188 7.457031 11.605469 6.800781 12.949219 5.460938 C 14.261719 4.148438 14.945312 2.535156 14.945312 0.65625 L 14.945312 -13.125 L 12.859375 -13.125 L 12.859375 -10.917969 C 12.738281 -11.039062 12.621094 -11.1875 12.5 -11.335938 C 11.1875 -12.707031 9.664062 -13.425781 7.9375 -13.425781 C 6.085938 -13.425781 4.566406 -12.707031 3.3125 -11.335938 C 2.117188 -9.964844 1.523438 -8.382812 1.523438 -6.5625 C 1.523438 -4.714844 2.117188 -3.132812 3.3125 -1.789062 C 4.566406 -0.386719 6.085938 0.296875 7.9375 0.296875 C 9.726562 0.296875 11.246094 -0.386719 12.5 -1.789062 C 12.621094 -1.910156 12.738281 -2.058594 12.859375 -2.179688 L 12.859375 0.65625 C 12.859375 1.96875 12.378906 3.074219 11.457031 3.996094 C 10.53125 4.921875 9.425781 5.371094 8.144531 5.371094 C 6.832031 5.371094 5.726562 4.921875 4.804688 3.996094 C 4.148438 3.339844 3.730469 2.625 3.550781 1.789062 Z M 3.550781 1.789062 "/></g></g></g><g fill="#ffffff" fill-opacity="1"><g transform="translate(3.782537, 78.465522)"><g><path d="M 7.371094 -3.738281 C 7.371094 -2.886719 7.0625 -2.164062 6.472656 -1.574219 C 5.871094 -0.972656 5.148438 -0.679688 4.308594 -0.679688 C 3.464844 -0.679688 2.746094 -0.972656 2.152344 -1.574219 C 1.550781 -2.164062 1.257812 -2.886719 1.257812 -3.738281 C 1.257812 -4.570312 1.550781 -5.292969 2.152344 -5.894531 C 2.746094 -6.484375 3.464844 -6.789062 4.308594 -6.789062 C 5.148438 -6.789062 5.871094 -6.484375 6.472656 -5.894531 C 7.0625 -5.292969 7.371094 -4.570312 7.371094 -3.738281 Z M 8.132812 -3.738281 C 8.132812 -4.265625 8.027344 -4.757812 7.828125 -5.226562 C 7.632812 -5.6875 7.359375 -6.089844 7.007812 -6.441406 C 6.660156 -6.777344 6.253906 -7.050781 5.796875 -7.25 C 5.324219 -7.445312 4.832031 -7.554688 4.308594 -7.554688 C 3.78125 -7.554688 3.28125 -7.445312 2.820312 -7.25 C 2.363281 -7.050781 1.957031 -6.777344 1.605469 -6.441406 C 1.257812 -6.089844 0.984375 -5.6875 0.789062 -5.226562 C 0.589844 -4.757812 0.492188 -4.265625 0.492188 -3.738281 C 0.492188 -3.214844 0.589844 -2.710938 0.789062 -2.253906 C 0.984375 -1.78125 1.257812 -1.378906 1.605469 -1.027344 C 1.957031 -0.679688 2.363281 -0.40625 2.820312 -0.207031 C 3.28125 -0.0117188 3.78125 0.0859375 4.308594 0.0859375 C 4.832031 0.0859375 5.324219 -0.0117188 5.796875 -0.207031 C 6.253906 -0.40625 6.660156 -0.679688 7.007812 -1.027344 C 7.359375 -1.378906 7.632812 -1.78125 7.828125 -2.253906 C 8.027344 -2.710938 8.132812 -3.214844 8.132812 -3.738281 Z M 8.132812 -3.738281 "/></g></g></g><g fill="#ffffff" fill-opacity="1"><g transform="translate(17.876557, 78.465522)"><g><path d="M 1.585938 -5.476562 L 5.761719 0.460938 L 5.761719 -7.433594 L 4.996094 -7.433594 L 4.996094 -1.96875 L 0.820312 -7.90625 L 0.820312 0 L 1.585938 0 Z M 1.585938 -5.476562 "/></g></g></g><g fill="#ffffff" fill-opacity="1"><g transform="translate(29.926461, 78.465522)"><g><path d="M 1.585938 -0.765625 L 1.585938 -7.433594 L 0.820312 -7.433594 L 0.820312 0 L 4.242188 0 L 4.242188 -0.765625 Z M 1.585938 -0.765625 "/></g></g></g><g fill="#ffffff" fill-opacity="1"><g transform="translate(39.855739, 78.465522)"><g><path d="M 1.585938 0 L 1.585938 -7.433594 L 0.820312 -7.433594 L 0.820312 0 Z M 1.585938 0 "/></g></g></g><g fill="#ffffff" fill-opacity="1"><g transform="translate(47.729976, 78.465522)"><g><path d="M 1.585938 -5.476562 L 5.761719 0.460938 L 5.761719 -7.433594 L 4.996094 -7.433594 L 4.996094 -1.96875 L 0.820312 -7.90625 L 0.820312 0 L 1.585938 0 Z M 1.585938 -5.476562 "/></g></g></g><g fill="#ffffff" fill-opacity="1"><g transform="translate(59.77988, 78.465522)"><g><path d="M 5.238281 0 L 5.238281 -0.710938 L 1.585938 -0.710938 L 1.585938 -3.355469 L 5.128906 -3.355469 L 5.128906 -4.078125 L 1.585938 -4.078125 L 1.585938 -6.722656 L 5.238281 -6.722656 L 5.238281 -7.433594 L 0.820312 -7.433594 L 0.820312 0 Z M 5.238281 0 "/></g></g></g><g fill="#ffffff" fill-opacity="1"><g transform="translate(71.305101, 78.465522)"><g/></g></g><g fill="#ffffff" fill-opacity="1"><g transform="translate(79.725894, 78.465522)"><g><path d="M 2.875 -3.5 C 3.835938 -3.269531 4.492188 -3.019531 4.84375 -2.734375 C 5.085938 -2.535156 5.203125 -2.285156 5.203125 -1.980469 C 5.203125 -1.671875 5.140625 -1.421875 5.007812 -1.246094 C 4.679688 -0.789062 4.089844 -0.558594 3.257812 -0.558594 C 2.097656 -0.558594 1.441406 -0.953125 1.300781 -1.738281 L 0.40625 -1.738281 C 0.667969 -0.480469 1.617188 0.140625 3.257812 0.140625 C 3.992188 0.140625 4.601562 -0.0117188 5.09375 -0.339844 C 5.6875 -0.722656 5.992188 -1.289062 5.992188 -2.035156 C 5.992188 -2.644531 5.75 -3.117188 5.269531 -3.445312 C 4.929688 -3.683594 4.382812 -3.902344 3.628906 -4.101562 C 2.863281 -4.296875 2.371094 -4.460938 2.144531 -4.582031 C 1.640625 -4.832031 1.386719 -5.183594 1.398438 -5.640625 C 1.398438 -5.882812 1.441406 -6.089844 1.550781 -6.242188 C 1.835938 -6.667969 2.339844 -6.886719 3.0625 -6.886719 C 4.078125 -6.886719 4.65625 -6.558594 4.8125 -5.925781 L 5.640625 -5.925781 C 5.367188 -6.996094 4.503906 -7.542969 3.0625 -7.542969 C 2.40625 -7.542969 1.824219 -7.371094 1.34375 -7.019531 C 0.851562 -6.667969 0.601562 -6.15625 0.601562 -5.457031 C 0.601562 -4.503906 1.367188 -3.847656 2.875 -3.5 Z M 2.875 -3.5 "/></g></g></g><g fill="#ffffff" fill-opacity="1"><g transform="translate(91.469733, 78.465522)"><g><path d="M 1.585938 0 L 1.585938 -3.324219 L 4.964844 -3.324219 L 4.964844 0 L 5.730469 0 L 5.730469 -7.433594 L 4.964844 -7.433594 L 4.964844 -4.089844 L 1.585938 -4.089844 L 1.585938 -7.433594 L 0.820312 -7.433594 L 0.820312 0 Z M 1.585938 0 "/></g></g></g><g fill="#ffffff" fill-opacity="1"><g transform="translate(103.486844, 78.465522)"><g><path d="M 7.371094 -3.738281 C 7.371094 -2.886719 7.0625 -2.164062 6.472656 -1.574219 C 5.871094 -0.972656 5.148438 -0.679688 4.308594 -0.679688 C 3.464844 -0.679688 2.746094 -0.972656 2.152344 -1.574219 C 1.550781 -2.164062 1.257812 -2.886719 1.257812 -3.738281 C 1.257812 -4.570312 1.550781 -5.292969 2.152344 -5.894531 C 2.746094 -6.484375 3.464844 -6.789062 4.308594 -6.789062 C 5.148438 -6.789062 5.871094 -6.484375 6.472656 -5.894531 C 7.0625 -5.292969 7.371094 -4.570312 7.371094 -3.738281 Z M 8.132812 -3.738281 C 8.132812 -4.265625 8.027344 -4.757812 7.828125 -5.226562 C 7.632812 -5.6875 7.359375 -6.089844 7.007812 -6.441406 C 6.660156 -6.777344 6.253906 -7.050781 5.796875 -7.25 C 5.324219 -7.445312 4.832031 -7.554688 4.308594 -7.554688 C 3.78125 -7.554688 3.28125 -7.445312 2.820312 -7.25 C 2.363281 -7.050781 1.957031 -6.777344 1.605469 -6.441406 C 1.257812 -6.089844 0.984375 -5.6875 0.789062 -5.226562 C 0.589844 -4.757812 0.492188 -4.265625 0.492188 -3.738281 C 0.492188 -3.214844 0.589844 -2.710938 0.789062 -2.253906 C 0.984375 -1.78125 1.257812 -1.378906 1.605469 -1.027344 C 1.957031 -0.679688 2.363281 -0.40625 2.820312 -0.207031 C 3.28125 -0.0117188 3.78125 0.0859375 4.308594 0.0859375 C 4.832031 0.0859375 5.324219 -0.0117188 5.796875 -0.207031 C 6.253906 -0.40625 6.660156 -0.679688 7.007812 -1.027344 C 7.359375 -1.378906 7.632812 -1.78125 7.828125 -2.253906 C 8.027344 -2.710938 8.132812 -3.214844 8.132812 -3.738281 Z M 8.132812 -3.738281 "/></g></g></g><g fill="#ffffff" fill-opacity="1"><g transform="translate(117.580869, 78.465522)"><g><path d="M 1.585938 -3.683594 L 1.585938 -6.703125 L 3.3125 -6.703125 C 3.761719 -6.703125 4.121094 -6.558594 4.394531 -6.285156 C 4.65625 -6.003906 4.800781 -5.652344 4.800781 -5.214844 C 4.800781 -4.765625 4.65625 -4.40625 4.375 -4.109375 C 4.089844 -3.828125 3.738281 -3.683594 3.3125 -3.683594 Z M 5.566406 -5.195312 C 5.566406 -5.847656 5.324219 -6.386719 4.867188 -6.8125 C 4.40625 -7.226562 3.859375 -7.433594 3.203125 -7.433594 L 0.820312 -7.433594 L 0.820312 0 L 1.585938 0 L 1.585938 -2.941406 L 3.203125 -2.941406 C 3.859375 -2.941406 4.417969 -3.148438 4.867188 -3.5625 C 5.324219 -4 5.566406 -4.539062 5.566406 -5.195312 Z M 5.566406 -5.195312 "/></g></g></g></svg>