<svg xmlns="http://www.w3.org/2000/svg" xmlns:xlink="http://www.w3.org/1999/xlink" width="100" zoomAndPan="magnify" viewBox="0 0 75 74.999997" height="100" preserveAspectRatio="xMidYMid meet" version="1.0"><defs><clipPath id="00aa22fa04"><path d="M 1.351562 1.351562 L 73.351562 1.351562 L 73.351562 73.351562 L 1.351562 73.351562 Z M 1.351562 1.351562 " clip-rule="nonzero"/></clipPath></defs><g clip-path="url(#00aa22fa04)"><path fill="#ffffff" d="M 72.1875 19.976562 L 69.402344 19.976562 C 69.128906 17.507812 68 15.292969 66.3125 13.625 C 64.449219 11.789062 61.914062 10.625 59.101562 10.53125 L 59.101562 2.511719 C 59.101562 1.871094 58.582031 1.351562 57.941406 1.351562 L 35.261719 1.351562 C 34.621094 1.351562 34.097656 1.871094 34.097656 2.511719 L 34.097656 9.472656 L 22.378906 9.472656 C 21.738281 9.472656 21.21875 9.992188 21.21875 10.632812 L 21.21875 19.980469 L 19.195312 19.980469 L 17.160156 10.328125 C 16.992188 9.535156 16.535156 8.820312 15.929688 8.300781 L 15.855469 8.238281 C 15.210938 7.707031 14.386719 7.378906 13.546875 7.378906 L 11.054688 7.378906 C 10.925781 7.21875 10.789062 7.066406 10.640625 6.921875 C 9.65625 5.945312 8.296875 5.347656 6.796875 5.347656 C 5.300781 5.347656 3.941406 5.949219 2.953125 6.921875 C 1.964844 7.898438 1.351562 9.253906 1.351562 10.742188 C 1.351562 12.230469 1.964844 13.582031 2.957031 14.558594 C 3.941406 15.535156 5.300781 16.136719 6.800781 16.136719 C 8.296875 16.136719 9.660156 15.53125 10.644531 14.558594 C 11.636719 13.582031 12.25 12.230469 12.25 10.742188 C 12.25 10.382812 12.214844 10.035156 12.148438 9.699219 C 12.855469 9.699219 13.550781 9.699219 13.550781 9.699219 C 13.839844 9.699219 14.140625 9.828125 14.390625 10.03125 L 14.441406 10.070312 C 14.671875 10.269531 14.839844 10.527344 14.894531 10.796875 L 17.292969 22.183594 C 17.296875 22.199219 17.300781 22.210938 17.304688 22.222656 C 17.902344 25.078125 18.519531 27.949219 19.140625 30.824219 C 19.136719 30.863281 19.132812 30.90625 19.132812 30.949219 C 19.132812 31.164062 19.191406 31.363281 19.292969 31.535156 C 19.9375 34.53125 20.578125 37.535156 21.191406 40.53125 C 21.175781 40.605469 21.167969 40.683594 21.167969 40.761719 C 21.167969 41.003906 21.242188 41.230469 21.367188 41.414062 C 21.777344 43.453125 22.175781 45.484375 22.546875 47.511719 C 22.695312 48.230469 23 48.910156 23.414062 49.5 C 22.109375 49.722656 20.9375 50.339844 20.039062 51.230469 C 18.894531 52.359375 18.183594 53.917969 18.183594 55.628906 C 18.183594 57.335938 18.894531 58.894531 20.039062 60.023438 C 21.175781 61.144531 22.742188 61.84375 24.464844 61.84375 L 67.707031 61.84375 C 68.347656 61.84375 68.867188 61.324219 68.867188 60.679688 C 68.867188 60.039062 68.347656 59.519531 67.707031 59.519531 L 24.464844 59.519531 C 23.371094 59.519531 22.378906 59.078125 21.660156 58.371094 C 20.945312 57.667969 20.503906 56.695312 20.503906 55.625 C 20.503906 54.554688 20.945312 53.585938 21.660156 52.878906 C 22.378906 52.171875 23.371094 51.730469 24.464844 51.730469 L 63.089844 51.730469 C 64.203125 51.730469 65.300781 51.246094 66.175781 50.464844 C 67.019531 49.707031 67.660156 48.660156 67.898438 47.507812 L 68.511719 44.546875 L 68.539062 44.4375 L 69.234375 41.082031 C 69.25 41.027344 69.265625 40.96875 69.269531 40.910156 L 71.269531 31.277344 C 71.289062 31.21875 71.296875 31.15625 71.308594 31.097656 L 73.304688 21.472656 C 73.335938 21.367188 73.351562 21.253906 73.351562 21.140625 C 73.351562 20.5 72.828125 19.976562 72.1875 19.976562 Z M 9.019531 12.910156 C 8.453125 13.46875 7.667969 13.8125 6.796875 13.8125 C 5.929688 13.8125 5.144531 13.46875 4.578125 12.910156 C 4.019531 12.355469 3.671875 11.589844 3.671875 10.742188 C 3.671875 9.894531 4.019531 9.125 4.578125 8.570312 C 5.144531 8.011719 5.929688 7.667969 6.796875 7.667969 C 7.667969 7.667969 8.453125 8.011719 9.019531 8.570312 C 9.578125 9.125 9.925781 9.890625 9.925781 10.742188 C 9.925781 11.589844 9.578125 12.355469 9.019531 12.910156 Z M 69.214844 29.789062 L 59.011719 29.789062 L 59.90625 22.300781 L 70.765625 22.300781 Z M 67.179688 39.601562 L 57.84375 39.601562 L 58.738281 32.113281 L 68.734375 32.113281 Z M 46.382812 49.410156 L 46.382812 41.921875 L 55.234375 41.921875 L 54.339844 49.410156 Z M 25.808594 48.742188 C 25.320312 48.304688 24.945312 47.703125 24.808594 47.042969 C 24.414062 45.347656 24.035156 43.640625 23.667969 41.921875 L 32.878906 41.921875 L 33.773438 49.414062 L 27.351562 49.414062 C 26.820312 49.410156 26.265625 49.15625 25.808594 48.742188 Z M 44.066406 22.300781 C 44.066406 23.785156 44.066406 26.546875 44.066406 29.789062 L 33.769531 29.789062 L 32.875 22.300781 Z M 57.570312 22.300781 L 56.679688 29.789062 L 46.378906 29.789062 L 46.378906 22.300781 Z M 44.066406 32.113281 C 44.066406 34.558594 44.066406 37.152344 44.066406 39.601562 L 34.9375 39.601562 L 34.046875 32.113281 Z M 32.601562 39.601562 L 23.171875 39.601562 C 22.652344 37.113281 22.148438 34.613281 21.652344 32.113281 L 31.707031 32.113281 Z M 36.105469 49.410156 L 35.214844 41.921875 L 44.070312 41.921875 C 44.070312 45.164062 44.070312 47.929688 44.070312 49.410156 Z M 46.378906 39.601562 L 46.378906 32.113281 L 56.402344 32.113281 L 55.507812 39.601562 Z M 67.0625 19.976562 L 50.390625 19.980469 C 50.648438 18.152344 51.503906 16.515625 52.761719 15.277344 C 54.289062 13.773438 56.394531 12.839844 58.726562 12.839844 C 61.058594 12.839844 63.164062 13.773438 64.691406 15.277344 C 65.945312 16.515625 66.804688 18.152344 67.0625 19.976562 Z M 56.78125 10.699219 C 55.09375 11.003906 53.542969 11.699219 52.230469 12.6875 L 52.230469 3.671875 L 56.78125 3.671875 Z M 36.421875 3.671875 L 49.90625 3.671875 L 49.90625 15.085938 C 48.90625 16.503906 48.25 18.175781 48.050781 19.980469 L 36.421875 19.980469 Z M 23.539062 11.796875 L 34.101562 11.796875 L 34.101562 19.980469 L 23.539062 19.980469 C 23.539062 17.480469 23.539062 11.796875 23.539062 11.796875 Z M 30.539062 22.300781 L 31.433594 29.789062 L 21.191406 29.789062 C 20.691406 27.28125 20.195312 24.777344 19.679688 22.300781 Z M 66.304688 43.828125 C 66.277344 43.90625 66.261719 43.988281 66.25 44.070312 L 65.632812 47.042969 C 65.496094 47.703125 65.121094 48.304688 64.632812 48.742188 C 64.171875 49.15625 63.621094 49.410156 63.089844 49.410156 L 56.675781 49.410156 L 57.570312 41.921875 L 66.699219 41.921875 Z M 28.234375 63.089844 C 26.808594 63.089844 25.515625 63.664062 24.578125 64.585938 C 23.636719 65.519531 23.050781 66.804688 23.050781 68.21875 C 23.050781 69.636719 23.636719 70.921875 24.578125 71.851562 C 25.515625 72.777344 26.808594 73.351562 28.234375 73.351562 C 29.65625 73.351562 30.949219 72.777344 31.886719 71.851562 C 32.832031 70.921875 33.414062 69.636719 33.414062 68.21875 C 33.414062 66.804688 32.832031 65.519531 31.886719 64.585938 C 30.949219 63.664062 29.65625 63.089844 28.234375 63.089844 Z M 30.261719 70.203125 C 29.746094 70.714844 29.027344 71.027344 28.234375 71.027344 C 27.4375 71.027344 26.71875 70.710938 26.203125 70.203125 C 25.691406 69.699219 25.375 68.996094 25.375 68.21875 C 25.375 67.445312 25.691406 66.742188 26.203125 66.238281 C 26.71875 65.726562 27.4375 65.410156 28.234375 65.410156 C 29.027344 65.410156 29.746094 65.730469 30.261719 66.238281 C 30.773438 66.742188 31.089844 67.445312 31.089844 68.21875 C 31.089844 68.996094 30.773438 69.699219 30.261719 70.203125 Z M 58.816406 63.089844 C 57.394531 63.089844 56.101562 63.664062 55.164062 64.585938 C 54.21875 65.519531 53.636719 66.804688 53.636719 68.21875 C 53.636719 69.636719 54.21875 70.921875 55.164062 71.851562 C 56.101562 72.777344 57.394531 73.351562 58.816406 73.351562 C 60.242188 73.351562 61.53125 72.777344 62.472656 71.851562 C 63.414062 70.921875 63.996094 69.636719 63.996094 68.21875 C 63.996094 66.804688 63.414062 65.519531 62.472656 64.585938 C 61.53125 63.664062 60.238281 63.089844 58.816406 63.089844 Z M 60.84375 70.203125 C 60.328125 70.714844 59.609375 71.027344 58.816406 71.027344 C 58.019531 71.027344 57.300781 70.710938 56.785156 70.203125 C 56.273438 69.699219 55.957031 68.996094 55.957031 68.21875 C 55.957031 67.445312 56.273438 66.742188 56.785156 66.238281 C 57.300781 65.726562 58.019531 65.410156 58.816406 65.410156 C 59.609375 65.410156 60.328125 65.730469 60.84375 66.238281 C 61.355469 66.742188 61.671875 67.445312 61.671875 68.21875 C 61.671875 68.996094 61.355469 69.699219 60.84375 70.203125 Z M 60.84375 70.203125 " fill-opacity="1" fill-rule="nonzero"/></g></svg>